<svg xmlns="http://www.w3.org/2000/svg" viewBox="0 0 800 600" role="img" aria-labelledby="t d">
<title id="t">Cozy watercolor exhibit for The Hobbit</title><desc id="d">A handcrafted museum illustration featuring round door, tiny traveler, mountain, dragon smoke.</desc>
<defs>
 <filter id="paper"><feTurbulence type="fractalNoise" baseFrequency=".65" numOctaves="3" seed="15" result="n"/><feColorMatrix in="n" values="1 0 0 0 0 0 1 0 0 0 0 0 1 0 0 0 0 0 .14 0"/><feBlend in="SourceGraphic" mode="multiply"/></filter>
 <filter id="wash"><feTurbulence type="fractalNoise" baseFrequency=".025" numOctaves="2" seed="23" result="w"/><feDisplacementMap in="SourceGraphic" in2="w" scale="7"/><feGaussianBlur stdDeviation=".45"/></filter>
 <linearGradient id="sky" x2="0" y2="1"><stop stop-color="#e7d8c6"/><stop offset="1" stop-color="#f8f1e4"/></linearGradient>
</defs>
<rect width="800" height="600" rx="24" fill="url(#sky)"/>
<g filter="url(#wash)" opacity=".88">
 <ellipse cx="180" cy="165" rx="145" ry="90" fill="#7d9aa6" opacity=".32"/>
 <ellipse cx="610" cy="185" rx="135" ry="105" fill="#c58a62" opacity=".25"/>
 <ellipse cx="405" cy="455" rx="300" ry="75" fill="#7c6a55" opacity=".14"/>
</g>
<g stroke="#7c6a55" stroke-width="7" stroke-linecap="round" stroke-linejoin="round" fill="none" opacity=".88">
 <path d="M115 420 Q170 225 285 330 Q365 160 455 330 Q560 210 675 420"/>
 <path d="M100 440 Q250 410 390 442 T700 438"/>
</g>
<g filter="url(#wash)">
 <rect x="95" y="95" width="250" height="150" rx="24" fill="#fff7e8" opacity=".72" transform="rotate(-3 220 170)"/>
 <rect x="455" y="88" width="250" height="150" rx="24" fill="#fff7e8" opacity=".72" transform="rotate(3 580 165)"/>
 <rect x="170" y="335" width="215" height="130" rx="24" fill="#fff7e8" opacity=".72" transform="rotate(2 277 400)"/>
 <rect x="425" y="330" width="220" height="135" rx="24" fill="#fff7e8" opacity=".72" transform="rotate(-2 535 398)"/>
</g>
<g fill="#7c6a55" font-family="Georgia,serif" text-anchor="middle">
 <text x="220" y="158" font-size="27">round door</text><text x="220" y="190" font-size="17" opacity=".65">painted from Penelope's notes</text>
 <text x="580" y="153" font-size="27">tiny traveler</text><text x="580" y="185" font-size="17" opacity=".65">museum study</text>
 <text x="278" y="395" font-size="26">mountain</text><text x="278" y="426" font-size="17" opacity=".65">questionably cataloged</text>
 <text x="535" y="390" font-size="26">dragon smoke</text><text x="535" y="422" font-size="17" opacity=".65">watercolor evidence</text>
</g>
<g stroke="#c58a62" stroke-width="5" fill="none" opacity=".6"><path d="M70 65 q25 -18 50 0 q25 18 50 0"/><path d="M630 525 q28 -20 56 0 q28 20 56 0"/></g>
<rect width="800" height="600" rx="24" fill="none" stroke="#6d4f32" stroke-width="9" opacity=".45" filter="url(#paper)"/>
<rect width="800" height="600" rx="24" fill="#fff" opacity=".08" filter="url(#paper)"/>
</svg>